<svg xmlns="http://www.w3.org/2000/svg" viewBox="0 0 640 640">
  <!-- Círculo externo (borda azul) -->
  <circle cx="320" cy="320" r="256" fill="none" stroke="rgb(37, 100, 207)" stroke-width="40"/>
  <!-- Ícone de informação (letra "i" em azul) -->
  <path fill="rgb(37, 100, 207)" d="M288 224C288 206.3 302.3 192 320 192C337.7 192 352 206.3 352 224C352 241.7 337.7 256 320 256C302.3 256 288 241.7 288 224zM280 288L328 288C341.3 288 352 298.7 352 312L352 400L360 400C373.3 400 384 410.7 384 424C384 437.3 373.3 448 360 448L280 448C266.7 448 256 437.3 256 424C256 410.7 266.7 400 280 400L304 400L304 336L280 336C266.7 336 256 325.3 256 312C256 298.7 266.7 288 280 288z"/>
</svg>
